#!OML:ASF F:\VICON\USERDATA\INSTALL\rory3\rory3.ASF
:FULLY-SPECIFIED
:DEGREES
1485
root 1.28593 17.3134 -0.787158 6.04597 -0.347669 0.918944
lowerback 17.5974 -0.513377 -2.50012
upperback 6.39104 -1.00206 1.83387
thorax -2.93433 -0.537401 3.55528
lowerneck -16.9953 -7.31716 -13.2597
upperneck 13.1699 -9.04188 13.2272
head 8.10873 -3.8189 5.47469
rclavicle -2.78299e-015 6.75868e-015
rhumerus -1.57213 18.1475 -78.2652
rradius 42.4237
rwrist 22.9176
rhand -15.2876 7.02298
rfingers 7.12502
rthumb 10.8874 -22.6748
lclavicle -2.78299e-015 6.75868e-015
lhumerus -10.2326 -20.2731 84.2964
lradius 41.7781
lwrist -9.0153
lhand 0.54195 27.7401
lfingers 7.12502
lthumb 26.1094 55.9652
rfemur -36.5865 -8.06434 25.7567
rtibia 39.6288
rfoot -5.57073 -1.16966
rtoes 16.4917
lfemur -22.6079 1.61275 -11.9511
ltibia 59.6275
lfoot -9.94243 -15.6464
ltoes -31.4934
1486
root 1.28689 17.3112 -0.760415 5.35284 -0.779431 0.422896
lowerback 17.4697 -0.630171 -1.93075
upperback 6.30807 -1.05228 2.04222
thorax -2.96015 -0.558593 3.46007
lowerneck -16.9634 -7.39868 -13.2643
upperneck 13.0312 -9.19134 13.4696
head 8.09317 -3.8713 5.53662
rclavicle 3.18055e-015 1.74931e-014
rhumerus -1.00999 18.0931 -77.2668
rradius 43.0639
rwrist 21.8823
rhand -15.5505 7.00734
rfingers 7.12502
rthumb 10.6338 -22.7036
lclavicle 3.18055e-015 1.74931e-014
lhumerus -9.95539 -20.1388 83.4592
lradius 42.2501
lwrist -9.32296
lhand -0.603143 26.6499
lfingers 7.12502
lthumb 25.0125 55.0324
rfemur -35.6444 -8.0495 26.2533
rtibia 39.564
rfoot -5.65682 -0.684042
rtoes 16.5294
lfemur -21.9971 1.98048 -11.8074
ltibia 60.0604
lfoot -9.85768 -17.1849
ltoes -31.8687
1487
root 1.28841 17.3131 -0.736115 4.91253 -1.47666 0.110444
lowerback 17.1242 -0.652963 -1.65931
upperback 6.15358 -1.02984 2.21614
thorax -2.94662 -0.546413 3.47962
lowerneck -16.9195 -7.43201 -13.2563
upperneck 12.948 -9.27111 13.6451
head 8.07958 -3.89604 5.58442
rclavicle 1.27222e-014 -8.74653e-015
rhumerus -0.431034 18.154 -76.1449
rradius 43.9164
rwrist 20.3662
rhand -15.614 6.88979
rfingers 7.12502
rthumb 10.5725 -22.8243
lclavicle 1.27222e-014 -8.74653e-015
lhumerus -9.78407 -19.9439 82.5958
lradius 42.9304
lwrist -9.48022
lhand 0.0154951 26.8418
lfingers 7.12502
lthumb 25.6052 55.1404
rfemur -34.9552 -7.85538 26.5722
rtibia 39.3825
rfoot -5.54868 -0.198396
rtoes 16.779
lfemur -21.59 2.52437 -11.9211
ltibia 60.4
lfoot -9.5682 -18.6704
ltoes -31.5546
1488
root 1.28905 17.3257 -0.711882 4.63678 -2.35095 0.198631
lowerback 16.5344 -0.575177 -1.80107
upperback 6.05195 -0.947118 2.26883
thorax -2.74565 -0.510462 3.58803
lowerneck -16.9413 -7.49841 -13.3084
upperneck 12.71 -9.37268 13.9008
head 8.03775 -3.92651 5.66345
rclavicle 1.90833e-014 -4.65156e-014
rhumerus 0.306935 18.266 -74.8509
rradius 44.8764
rwrist 18.95
rhand -15.37 6.35103
rfingers 7.12502
rthumb 10.8079 -23.3509
lclavicle 1.90833e-014 -4.65156e-014
lhumerus -9.53808 -20.4244 81.6795
lradius 43.4296
lwrist -7.48716
lhand -1.57095 26.5309
lfingers 7.12502
lthumb 24.0849 55.0393
rfemur -34.4706 -7.51709 26.4339
rtibia 39.1984
rfoot -5.38607 0.315092
rtoes 17.2231
lfemur -21.3244 3.09221 -12.5411
ltibia 60.6053
lfoot -8.72476 -20.1404
ltoes -30.1415
1489
root 1.2898 17.3365 -0.690081 4.34606 -3.07008 0.156941
lowerback 15.9634 -0.567163 -1.73511
upperback 5.99879 -0.922606 2.33459
thorax -2.5019 -0.502639 3.60302
lowerneck -17.0531 -7.57365 -13.2534
upperneck 12.4519 -9.48423 14.0764
head 7.99696 -3.96023 5.69316
rclavicle 3.97569e-016 5.96354e-015
rhumerus 1.15925 18.1902 -73.5677
rradius 45.8139
rwrist 17.6529
rhand -14.8734 5.82703
rfingers 7.12502
rthumb 11.2869 -23.8493
lclavicle 3.97569e-016 5.96354e-015
lhumerus -9.04802 -20.662 80.5126
lradius 43.9737
lwrist -6.84639
lhand -2.11336 26.5218
lfingers 7.12502
lthumb 23.5647 55.0981
rfemur -33.9914 -7.25283 26.4555
rtibia 39.0799
rfoot -5.21604 0.77681
rtoes 17.7476
lfemur -21.1265 3.51942 -13.0027
ltibia 60.7188
lfoot -7.57252 -21.6256
ltoes -28.4145
